<svg xmlns="http://www.w3.org/2000/svg" width="720" height="480" viewBox="0 0 720 480">
  <rect width="720" height="480" fill="#0b0f14"/>
  <path d="M0 48h720M0 96h720M0 144h720M0 192h720M0 240h720M0 288h720M0 336h720M0 384h720M0 432h720M48 0v480M96 0v480M144 0v480M192 0v480M240 0v480M288 0v480M336 0v480M384 0v480M432 0v480M480 0v480M528 0v480M576 0v480M624 0v480M672 0v480" stroke="#1c2a36" stroke-width="2"/>
  <rect x="86" y="72" width="258" height="176" rx="8" fill="#eff8fb"/>
  <rect x="386" y="172" width="248" height="174" rx="8" fill="#dbe9ef"/>
  <path d="M124 208c44-108 88-128 132-58 34 54 46 74 66 34" fill="#9de4ff" stroke="#31bfff" stroke-width="8" stroke-linecap="round" stroke-linejoin="round"/>
  <rect x="432" y="214" width="128" height="84" fill="#9de4ff" stroke="#31bfff" stroke-width="8"/>
  <path d="M92 314h178M92 354h286M92 394h230" stroke="#f4f7fb" stroke-width="22" stroke-linecap="round"/>
  <text x="86" y="446" fill="#98a8b9" font-family="Arial, sans-serif" font-size="38" font-weight="700">Braindump Memo</text>
</svg>
